<svg xmlns="http://www.w3.org/2000/svg" viewBox="0 0 1700 1200" font-family="'Helvetica Neue', Arial, sans-serif">
  <defs>
    <marker id="arr" viewBox="0 0 10 8" refX="10" refY="4" markerWidth="8" markerHeight="6" orient="auto-start-reverse">
      <path d="M0,0 L10,4 L0,8 Z" fill="#555"/>
    </marker>
    <marker id="arr-bl" viewBox="0 0 10 8" refX="10" refY="4" markerWidth="8" markerHeight="6" orient="auto-start-reverse">
      <path d="M0,0 L10,4 L0,8 Z" fill="#2980B9"/>
    </marker>
    <marker id="arr-gn" viewBox="0 0 10 8" refX="10" refY="4" markerWidth="8" markerHeight="6" orient="auto-start-reverse">
      <path d="M0,0 L10,4 L0,8 Z" fill="#27AE60"/>
    </marker>
    <marker id="arr-am" viewBox="0 0 10 8" refX="10" refY="4" markerWidth="8" markerHeight="6" orient="auto-start-reverse">
      <path d="M0,0 L10,4 L0,8 Z" fill="#C17D11"/>
    </marker>
    <marker id="arr-rd" viewBox="0 0 10 8" refX="10" refY="4" markerWidth="8" markerHeight="6" orient="auto-start-reverse">
      <path d="M0,0 L10,4 L0,8 Z" fill="#C0392B"/>
    </marker>
    <marker id="arr-pu" viewBox="0 0 10 8" refX="10" refY="4" markerWidth="8" markerHeight="6" orient="auto-start-reverse">
      <path d="M0,0 L10,4 L0,8 Z" fill="#7D3C98"/>
    </marker>
    <marker id="arr-tl" viewBox="0 0 10 8" refX="10" refY="4" markerWidth="8" markerHeight="6" orient="auto-start-reverse">
      <path d="M0,0 L10,4 L0,8 Z" fill="#1A8870"/>
    </marker>
    <marker id="open-gn" viewBox="0 0 10 8" refX="10" refY="4" markerWidth="9" markerHeight="7" orient="auto-start-reverse">
      <path d="M0,0 L10,4 L0,8" fill="none" stroke="#27AE60" stroke-width="1.2"/>
    </marker>
    <marker id="open-rd" viewBox="0 0 10 8" refX="10" refY="4" markerWidth="9" markerHeight="7" orient="auto-start-reverse">
      <path d="M0,0 L10,4 L0,8" fill="none" stroke="#C0392B" stroke-width="1.2"/>
    </marker>
    <marker id="open-arr" viewBox="0 0 10 8" refX="10" refY="4" markerWidth="9" markerHeight="7" orient="auto-start-reverse">
      <path d="M0,0 L10,4 L0,8" fill="none" stroke="#555" stroke-width="1.2"/>
    </marker>
  </defs>

  <rect width="1700" height="1200" fill="#FAFBFC" rx="8"/>
  <text x="850" y="28" text-anchor="middle" font-size="18" font-weight="600" fill="#2C3E50">Domain Model Metamodel</text>

  <!-- ══════════ LEGEND ══════════ -->
  <g transform="translate(1330, 48)">
    <rect x="0" y="0" width="345" height="230" rx="6" fill="white" stroke="#DDD" stroke-width="1"/>
    <text x="12" y="20" font-size="11" font-weight="600" fill="#555">Legend</text>
    <rect x="12" y="30" width="14" height="14" rx="3" fill="#D6EAF8" stroke="#2980B9" stroke-width="1.2"/>
    <text x="32" y="42" font-size="10" fill="#444">Structure (Organization, BC, Module, Interface)</text>
    <rect x="12" y="50" width="14" height="14" rx="3" fill="#D5F5E3" stroke="#27AE60" stroke-width="1.2"/>
    <text x="32" y="62" font-size="10" fill="#444">Domain concepts (Entity, Aggregate, Value Type)</text>
    <rect x="12" y="70" width="14" height="14" rx="3" fill="#FEF5E7" stroke="#D4A017" stroke-width="1.2"/>
    <text x="32" y="82" font-size="10" fill="#444">Behavior (Operation, State Machine, Repository)</text>
    <rect x="12" y="90" width="14" height="14" rx="3" fill="#FADBD8" stroke="#C0392B" stroke-width="1.2"/>
    <text x="32" y="102" font-size="10" fill="#444">Messages (Command, Query, Event)</text>
    <rect x="12" y="110" width="14" height="14" rx="3" fill="#E8DAEF" stroke="#7D3C98" stroke-width="1.2"/>
    <text x="32" y="122" font-size="10" fill="#444">Services (Domain, Application, Infrastructure)</text>
    <rect x="12" y="130" width="14" height="14" rx="3" fill="#D1F2EB" stroke="#1A8870" stroke-width="1.2"/>
    <text x="32" y="142" font-size="10" fill="#444">Properties (Invariant, Policy, Agreement...)</text>
    <line x1="12" y1="162" x2="40" y2="162" stroke="#555" stroke-width="1.5" marker-end="url(#arr)"/>
    <text x="48" y="166" font-size="10" fill="#444">Relationship (with cardinality)</text>
    <line x1="12" y1="180" x2="40" y2="180" stroke="#555" stroke-width="1.5" stroke-dasharray="5,3" marker-end="url(#open-arr)"/>
    <text x="48" y="184" font-size="10" fill="#444">Is-a / Specialization</text>
    <line x1="12" y1="198" x2="40" y2="198" stroke="#555" stroke-width="1.2" stroke-dasharray="3,2" marker-end="url(#arr)"/>
    <text x="48" y="202" font-size="10" fill="#444">Containment (belongs to)</text>
    <line x1="12" y1="216" x2="40" y2="216" stroke="#555" stroke-width="1.2" stroke-dasharray="2,3"/>
    <text x="48" y="220" font-size="10" fill="#444">Scoping / structural link</text>
  </g>

  <!-- ══════════════════════════════════════════ -->
  <!-- RELATIONSHIP LINES (behind boxes)         -->
  <!-- ══════════════════════════════════════════ -->

  <!-- ── STRUCTURAL (blue) ── -->

  <!-- 1. Organization → BC (1..n) -->
  <line x1="800" y1="77" x2="800" y2="136" stroke="#2980B9" stroke-width="1.6" marker-end="url(#arr-bl)"/>
  <text x="812" y="115" font-size="9" fill="#2980B9" font-weight="500">1..n</text>

  <!-- 2. BC → Module (0..n has) -->
  <path d="M 735,182 Q 560,230 410,258" fill="none" stroke="#2980B9" stroke-width="1.6" marker-end="url(#arr-bl)"/>
  <text x="555" y="218" font-size="9" fill="#2980B9" font-weight="500">0..n has</text>

  <!-- 3. BC self-loop (0..n position/pattern) -->
  <path d="M 908,142 C 970,100 1040,150 908,180" fill="none" stroke="#2980B9" stroke-width="1.4" marker-end="url(#arr-bl)"/>
  <text x="968" y="128" font-size="8.5" fill="#2980B9" font-weight="500">0..n</text>
  <text x="955" y="140" font-size="7.5" fill="#2980B9" font-style="italic">position / pattern</text>

  <!-- 4. Module → Interface (0..n exposes) -->
  <path d="M 340,302 Q 260,350 185,388" fill="none" stroke="#2980B9" stroke-width="1.6" marker-end="url(#arr-bl)"/>
  <text x="238" y="344" font-size="9" fill="#2980B9" font-weight="500">0..n exposes</text>

  <!-- 5. Module self-loop (0..n depends on) -->
  <path d="M 322,262 C 265,230 265,310 322,298" fill="none" stroke="#2980B9" stroke-width="1.3" marker-end="url(#arr-bl)"/>
  <text x="235" y="275" font-size="8" fill="#2980B9" font-weight="500" text-anchor="end">0..n</text>
  <text x="235" y="286" font-size="7" fill="#2980B9" font-style="italic" text-anchor="end">depends on</text>

  <!-- 6. Module → Entity (0..n contains) -->
  <path d="M 400,302 Q 445,348 488,388" fill="none" stroke="#2980B9" stroke-width="1.4" marker-end="url(#arr-bl)"/>
  <text x="462" y="340" font-size="8.5" fill="#2980B9" font-weight="500">contains</text>

  <!-- 7. Module → Value Type (0..n contains, dashed) -->
  <path d="M 430,302 Q 610,340 758,388" fill="none" stroke="#2980B9" stroke-width="1.1" stroke-dasharray="3,2" marker-end="url(#arr-bl)"/>

  <!-- 8. Module → Domain Service (0..n contains, dashed) -->
  <path d="M 440,278 Q 730,280 985,388" fill="none" stroke="#2980B9" stroke-width="1.0" stroke-dasharray="3,2" marker-end="url(#arr-bl)"/>

  <!-- 9. Module → App Service (contains, dashed) -->
  <path d="M 440,275 L 1092,275" fill="none" stroke="#2980B9" stroke-width="1.0" stroke-dasharray="3,2" marker-end="url(#arr-bl)"/>

  <!-- 10. Module → Infra Service (contains, dashed) -->
  <path d="M 440,295 Q 900,330 1285,400" fill="none" stroke="#2980B9" stroke-width="1.0" stroke-dasharray="3,2" marker-end="url(#arr-bl)"/>
  <text x="760" y="298" font-size="8" fill="#2980B9" font-style="italic">0..n contains</text>

  <!-- ── DOMAIN (green) ── -->

  <!-- 11. Entity → Operation (0..n owns) -->
  <path d="M 475,432 L 355,523" fill="none" stroke="#27AE60" stroke-width="1.6" marker-end="url(#arr-gn)"/>
  <text x="397" y="470" font-size="9" fill="#27AE60" font-weight="500">0..n owns</text>

  <!-- 12. Entity → State Machine (0..n has) -->
  <path d="M 520,432 L 558,523" fill="none" stroke="#27AE60" stroke-width="1.6" marker-end="url(#arr-gn)"/>
  <text x="548" y="477" font-size="9" fill="#27AE60" font-weight="500">0..n</text>

  <!-- 13. Entity → Repository (0..1 derives) -->
  <path d="M 555,420 Q 650,450 710,523" fill="none" stroke="#27AE60" stroke-width="1.4" marker-end="url(#arr-gn)"/>
  <text x="642" y="455" font-size="9" fill="#27AE60" font-weight="500">0..1 derives</text>

  <!-- 14. Entity self-loop (0..n relates to) -->
  <path d="M 468,388 C 455,352 535,352 522,388" fill="none" stroke="#27AE60" stroke-width="1.3" marker-end="url(#arr-gn)"/>
  <text x="496" y="358" text-anchor="middle" font-size="7.5" fill="#27AE60" font-weight="500">0..n relates to</text>

  <!-- 15. Aggregate ⊳ Entity (is-a, dashed) -->
  <path d="M 905,535 Q 730,465 555,420" fill="none" stroke="#27AE60" stroke-width="1.6" stroke-dasharray="6,3" marker-end="url(#open-gn)"/>
  <text x="740" y="475" font-size="9" fill="#27AE60" font-weight="500" font-style="italic">is-a</text>

  <!-- 16. Aggregate → Entity (1..1 has root / 1..n contains, dotted) -->
  <path d="M 935,523 Q 870,468 555,426" fill="none" stroke="#27AE60" stroke-width="1.1" stroke-dasharray="2,2" marker-end="url(#arr-gn)"/>
  <text x="825" y="456" font-size="7.5" fill="#27AE60" font-style="italic">1..1 root / 1..n contains</text>

  <!-- 17. Value Type self-loop (0..n composes) -->
  <path d="M 758,388 C 745,352 835,352 822,388" fill="none" stroke="#27AE60" stroke-width="1.3" marker-end="url(#arr-gn)"/>
  <text x="790" y="358" text-anchor="middle" font-size="7.5" fill="#27AE60" font-weight="500">0..n composes</text>

  <!-- 18. Value Type → Operation (0..n has, dashed) -->
  <path d="M 720,425 Q 545,510 388,545" fill="none" stroke="#27AE60" stroke-width="1.1" stroke-dasharray="3,2" marker-end="url(#arr-gn)"/>
  <text x="570" y="500" font-size="8" fill="#27AE60" font-style="italic">0..n has</text>

  <!-- 19. Value Type → Entity (0..n embedded in) — NEW -->
  <path d="M 720,410 Q 640,410 555,410" fill="none" stroke="#27AE60" stroke-width="1.5" stroke-dasharray="4,3" marker-end="url(#arr-gn)"/>
  <text x="637" y="403" text-anchor="middle" font-size="8.5" fill="#27AE60" font-weight="500">0..n embedded in</text>

  <!-- ── EXPOSURE (amber) ── -->

  <!-- 20. Interface → Operation (1..n exposes) -->
  <path d="M 185,432 Q 220,480 260,523" fill="none" stroke="#C17D11" stroke-width="1.6" marker-end="url(#arr-am)"/>
  <text x="190" y="487" font-size="9" fill="#C17D11" font-weight="500">1..n exposes</text>

  <!-- ── SERVICES (purple) ── -->

  <!-- 21. Domain Service → Operation (1..n owns, dashed) -->
  <path d="M 985,432 Q 680,510 388,548" fill="none" stroke="#7D3C98" stroke-width="1.3" stroke-dasharray="4,3" marker-end="url(#arr-pu)"/>
  <text x="710" y="507" font-size="9" fill="#7D3C98" font-weight="500">1..n owns</text>

  <!-- 22. App Service → Domain Service (delegates) -->
  <path d="M 1140,302 L 1090,388" fill="none" stroke="#7D3C98" stroke-width="1.4" marker-end="url(#arr-pu)"/>
  <text x="1128" y="352" font-size="9" fill="#7D3C98" font-weight="500">delegates</text>

  <!-- 23. App Service → Entity (delegates to domain objects, dashed) -->
  <path d="M 1093,295 Q 800,315 555,400" fill="none" stroke="#7D3C98" stroke-width="1.1" stroke-dasharray="3,3" marker-end="url(#arr-pu)"/>
  <text x="810" y="322" font-size="8" fill="#7D3C98" font-style="italic">delegates to domain objects</text>

  <!-- 24. Entity → Infra Service (calls, one-way, dashed) -->
  <path d="M 555,425 Q 920,448 1285,425" fill="none" stroke="#7D3C98" stroke-width="1.1" stroke-dasharray="3,3" marker-end="url(#arr-pu)"/>
  <text x="920" y="455" font-size="8" fill="#7D3C98" font-style="italic">calls (one-way)</text>

  <!-- ── MESSAGE FLOW (red) ── -->

  <!-- 25. Command → Operation (triggers) -->
  <path d="M 210,668 Q 245,600 270,567" fill="none" stroke="#C0392B" stroke-width="1.5" marker-end="url(#arr-rd)"/>
  <text x="218" y="600" font-size="9" fill="#C0392B" font-weight="500">triggers</text>

  <!-- 26. Command → Entity (1..1 targets, dashed) -->
  <path d="M 255,680 C 360,650 440,530 462,434" fill="none" stroke="#C0392B" stroke-width="1.3" stroke-dasharray="4,2" marker-end="url(#arr-rd)"/>
  <text x="392" y="568" font-size="8.5" fill="#C0392B" font-weight="500">1..1 targets</text>

  <!-- 27. Operation → Event (0..n emits) -->
  <path d="M 387,558 Q 490,620 585,668" fill="none" stroke="#C0392B" stroke-width="1.5" marker-end="url(#arr-rd)"/>
  <text x="478" y="622" font-size="9" fill="#C0392B" font-weight="500">0..n emits</text>

  <!-- 28. Query → Repository (1..1 reads from) -->
  <path d="M 440,668 Q 610,612 720,567" fill="none" stroke="#C0392B" stroke-width="1.3" marker-end="url(#arr-rd)"/>
  <text x="598" y="620" font-size="8.5" fill="#C0392B" font-weight="500">1..1 reads from</text>

  <!-- 29-32. Event subtypes (dashed, is-a) -->
  <path d="M 590,712 L 455,771" fill="none" stroke="#C0392B" stroke-width="1.2" stroke-dasharray="5,3" marker-end="url(#open-rd)"/>
  <path d="M 618,712 L 618,771" fill="none" stroke="#C0392B" stroke-width="1.2" stroke-dasharray="5,3" marker-end="url(#open-rd)"/>
  <path d="M 650,712 L 790,771" fill="none" stroke="#C0392B" stroke-width="1.2" stroke-dasharray="5,3" marker-end="url(#open-rd)"/>
  <path d="M 670,712 L 1050,771" fill="none" stroke="#C0392B" stroke-width="1.2" stroke-dasharray="5,3" marker-end="url(#open-rd)"/>

  <!-- 33. External Event → Command (1..n triggers, curved below) -->
  <path d="M 745,809 Q 450,875 220,712" fill="none" stroke="#C0392B" stroke-width="1.3" stroke-dasharray="3,2" marker-end="url(#arr-rd)"/>
  <text x="428" y="850" font-size="8.5" fill="#C0392B" font-weight="500">1..n triggers</text>

  <!-- ── PROPERTIES (teal) ── -->

  <!-- 34. Internal Event → Policy (triggers) -->
  <path d="M 440,809 Q 428,880 413,950" fill="none" stroke="#1A8870" stroke-width="1.4" marker-end="url(#arr-tl)"/>
  <text x="418" y="878" font-size="9" fill="#1A8870" font-weight="500">triggers</text>

  <!-- 35. Error Event → Policy (triggers) -->
  <path d="M 610,809 Q 530,890 420,950" fill="none" stroke="#1A8870" stroke-width="1.3" marker-end="url(#arr-tl)"/>
  <text x="540" y="893" font-size="8.5" fill="#1A8870" font-weight="500">triggers</text>

  <!-- 36. Temporal Event → Policy (triggers) -->
  <path d="M 1050,809 Q 750,910 420,960" fill="none" stroke="#1A8870" stroke-width="1.2" stroke-dasharray="3,2" marker-end="url(#arr-tl)"/>
  <text x="750" y="895" font-size="8.5" fill="#1A8870" font-weight="500">triggers</text>

  <!-- 37. Policy → Command (effect, curved left+up) -->
  <path d="M 355,970 C 270,955 160,845 185,712" fill="none" stroke="#1A8870" stroke-width="1.4" marker-end="url(#arr-tl)"/>
  <text x="128" y="858" font-size="9" fill="#1A8870" font-weight="500">effect</text>

  <!-- 38. Invariant → Entity (scoped to, dotted) -->
  <path d="M 200,950 Q 300,695 470,434" fill="none" stroke="#1A8870" stroke-width="1.2" stroke-dasharray="2,3" marker-end="url(#arr-tl)"/>
  <text x="278" y="695" font-size="8.5" fill="#1A8870" font-weight="500" transform="rotate(-60,278,695)">scoped to</text>

  <!-- 39. Agreement → Aggregate (2..n involves) -->
  <path d="M 700,950 Q 850,765 950,567" fill="none" stroke="#1A8870" stroke-width="1.4" marker-end="url(#arr-tl)"/>
  <text x="855" y="755" font-size="9" fill="#1A8870" font-weight="500">2..n involves</text>

  <!-- 40. Agreement → Reconciliation (1..1 maintained by) -->
  <line x1="752" y1="970" x2="888" y2="970" stroke="#1A8870" stroke-width="1.6" marker-end="url(#arr-tl)"/>
  <text x="800" y="963" font-size="8.5" fill="#1A8870" font-weight="500">1..1 maintained by</text>

  <!-- 41. Reconciliation → Event (0..n listens to, dashed) -->
  <path d="M 950,950 Q 810,845 670,712" fill="none" stroke="#1A8870" stroke-width="1.3" stroke-dasharray="4,2" marker-end="url(#arr-tl)"/>
  <text x="845" y="848" font-size="8.5" fill="#1A8870" font-weight="500">0..n listens to</text>

  <!-- 42. Reconciliation → Command (1..n issues, dashed) -->
  <path d="M 888,985 C 600,1030 250,920 190,712" fill="none" stroke="#1A8870" stroke-width="1.2" stroke-dasharray="4,2" marker-end="url(#arr-tl)"/>
  <text x="520" y="1010" font-size="8.5" fill="#1A8870" font-weight="500">1..n issues</text>

  <!-- 43. Reconciliation → Escalation Chain (0..1) -->
  <line x1="980" y1="992" x2="980" y2="1058" stroke="#1A8870" stroke-width="1.5" marker-end="url(#arr-tl)"/>
  <text x="992" y="1035" font-size="9" fill="#1A8870" font-weight="500">0..1</text>

  <!-- ══════════════════════════════════════════ -->
  <!-- CONCEPT BOXES                              -->
  <!-- ══════════════════════════════════════════ -->

  <!-- Organization -->
  <g>
    <rect x="715" y="33" width="170" height="44" rx="6" fill="#D6EAF8" stroke="#2980B9" stroke-width="1.8"/>
    <text x="800" y="60" text-anchor="middle" font-size="13" font-weight="600" fill="#1A5276">Organization</text>
  </g>

  <!-- Bounded Context -->
  <g>
    <rect x="692" y="138" width="215" height="44" rx="6" fill="#D6EAF8" stroke="#2980B9" stroke-width="1.8"/>
    <text x="800" y="165" text-anchor="middle" font-size="13" font-weight="600" fill="#1A5276">Bounded Context</text>
  </g>

  <!-- Module -->
  <g>
    <rect x="320" y="258" width="120" height="44" rx="6" fill="#D6EAF8" stroke="#2980B9" stroke-width="1.8"/>
    <text x="380" y="285" text-anchor="middle" font-size="13" font-weight="600" fill="#1A5276">Module</text>
  </g>

  <!-- Interface -->
  <g>
    <rect x="97" y="388" width="125" height="44" rx="6" fill="#D6EAF8" stroke="#2980B9" stroke-width="1.8"/>
    <text x="160" y="415" text-anchor="middle" font-size="13" font-weight="600" fill="#1A5276">Interface</text>
  </g>

  <!-- Entity -->
  <g>
    <rect x="445" y="388" width="110" height="44" rx="6" fill="#D5F5E3" stroke="#27AE60" stroke-width="1.8"/>
    <text x="500" y="415" text-anchor="middle" font-size="13" font-weight="600" fill="#1E6F3E">Entity</text>
  </g>

  <!-- Value Type -->
  <g>
    <rect x="720" y="388" width="140" height="44" rx="6" fill="#D5F5E3" stroke="#27AE60" stroke-width="1.8"/>
    <text x="790" y="415" text-anchor="middle" font-size="13" font-weight="600" fill="#1E6F3E">Value Type</text>
  </g>

  <!-- Aggregate -->
  <g>
    <rect x="900" y="523" width="140" height="44" rx="6" fill="#D5F5E3" stroke="#27AE60" stroke-width="1.8"/>
    <text x="970" y="550" text-anchor="middle" font-size="13" font-weight="600" fill="#1E6F3E">Aggregate</text>
  </g>

  <!-- Operation -->
  <g>
    <rect x="252" y="523" width="135" height="44" rx="6" fill="#FEF5E7" stroke="#D4A017" stroke-width="1.8"/>
    <text x="320" y="550" text-anchor="middle" font-size="13" font-weight="600" fill="#7D6608">Operation</text>
  </g>

  <!-- State Machine -->
  <g>
    <rect x="482" y="523" width="175" height="44" rx="6" fill="#FEF5E7" stroke="#D4A017" stroke-width="1.8"/>
    <text x="570" y="550" text-anchor="middle" font-size="13" font-weight="600" fill="#7D6608">State Machine</text>
  </g>

  <!-- Repository -->
  <g>
    <rect x="710" y="523" width="140" height="44" rx="6" fill="#FEF5E7" stroke="#D4A017" stroke-width="1.8"/>
    <text x="780" y="550" text-anchor="middle" font-size="13" font-weight="600" fill="#7D6608">Repository</text>
  </g>

  <!-- Command -->
  <g>
    <rect x="125" y="668" width="130" height="44" rx="6" fill="#FADBD8" stroke="#C0392B" stroke-width="1.8"/>
    <text x="190" y="695" text-anchor="middle" font-size="13" font-weight="600" fill="#922B21">Command</text>
  </g>

  <!-- Query -->
  <g>
    <rect x="350" y="668" width="100" height="44" rx="6" fill="#FADBD8" stroke="#C0392B" stroke-width="1.8"/>
    <text x="400" y="695" text-anchor="middle" font-size="13" font-weight="600" fill="#922B21">Query</text>
  </g>

  <!-- Event -->
  <g>
    <rect x="565" y="668" width="115" height="44" rx="6" fill="#FADBD8" stroke="#C0392B" stroke-width="1.8"/>
    <text x="623" y="695" text-anchor="middle" font-size="13" font-weight="600" fill="#922B21">Event</text>
  </g>

  <!-- Internal Event -->
  <g>
    <rect x="355" y="771" width="170" height="38" rx="5" fill="#FADBD8" stroke="#C0392B" stroke-width="1.3"/>
    <text x="440" y="794" text-anchor="middle" font-size="11" font-weight="500" fill="#922B21">Internal Event</text>
  </g>

  <!-- Error Event -->
  <g>
    <rect x="555" y="771" width="140" height="38" rx="5" fill="#FADBD8" stroke="#C0392B" stroke-width="1.3"/>
    <text x="625" y="794" text-anchor="middle" font-size="11" font-weight="500" fill="#922B21">Error Event</text>
  </g>

  <!-- External Event -->
  <g>
    <rect x="725" y="771" width="175" height="38" rx="5" fill="#FADBD8" stroke="#C0392B" stroke-width="1.3"/>
    <text x="813" y="794" text-anchor="middle" font-size="11" font-weight="500" fill="#922B21">External Event</text>
  </g>

  <!-- Temporal Event -->
  <g>
    <rect x="955" y="771" width="185" height="38" rx="5" fill="#FADBD8" stroke="#C0392B" stroke-width="1.3"/>
    <text x="1048" y="794" text-anchor="middle" font-size="11" font-weight="500" fill="#922B21">Temporal Event</text>
  </g>

  <!-- Domain Service -->
  <g>
    <rect x="985" y="388" width="180" height="44" rx="6" fill="#E8DAEF" stroke="#7D3C98" stroke-width="1.8"/>
    <text x="1075" y="415" text-anchor="middle" font-size="13" font-weight="600" fill="#5B2C6F">Domain Service</text>
  </g>

  <!-- Application Service -->
  <g>
    <rect x="1092" y="258" width="215" height="44" rx="6" fill="#E8DAEF" stroke="#7D3C98" stroke-width="1.8"/>
    <text x="1200" y="285" text-anchor="middle" font-size="13" font-weight="600" fill="#5B2C6F">Application Service</text>
  </g>

  <!-- Infrastructure Service -->
  <g>
    <rect x="1275" y="388" width="250" height="44" rx="6" fill="#E8DAEF" stroke="#7D3C98" stroke-width="1.8"/>
    <text x="1400" y="409" text-anchor="middle" font-size="12" font-weight="600" fill="#5B2C6F">Infrastructure Service</text>
    <text x="1400" y="424" text-anchor="middle" font-size="9" fill="#7D3C98" font-style="italic">1..1 has Interface (ACL adapter)</text>
  </g>

  <!-- Invariant -->
  <g>
    <rect x="127" y="950" width="125" height="44" rx="6" fill="#D1F2EB" stroke="#1A8870" stroke-width="1.8"/>
    <text x="190" y="977" text-anchor="middle" font-size="13" font-weight="600" fill="#0E6655">Invariant</text>
  </g>

  <!-- Policy -->
  <g>
    <rect x="350" y="950" width="100" height="44" rx="6" fill="#D1F2EB" stroke="#1A8870" stroke-width="1.8"/>
    <text x="400" y="977" text-anchor="middle" font-size="13" font-weight="600" fill="#0E6655">Policy</text>
  </g>

  <!-- Agreement -->
  <g>
    <rect x="607" y="950" width="145" height="44" rx="6" fill="#D1F2EB" stroke="#1A8870" stroke-width="1.8"/>
    <text x="680" y="977" text-anchor="middle" font-size="13" font-weight="600" fill="#0E6655">Agreement</text>
  </g>

  <!-- Reconciliation -->
  <g>
    <rect x="887" y="950" width="185" height="44" rx="6" fill="#D1F2EB" stroke="#1A8870" stroke-width="1.8"/>
    <text x="980" y="977" text-anchor="middle" font-size="13" font-weight="600" fill="#0E6655">Reconciliation</text>
  </g>

  <!-- Escalation Chain -->
  <g>
    <rect x="882" y="1058" width="195" height="44" rx="6" fill="#D1F2EB" stroke="#1A8870" stroke-width="1.8"/>
    <text x="980" y="1085" text-anchor="middle" font-size="12" font-weight="600" fill="#0E6655">Escalation Chain</text>
  </g>

  <!-- ══════════════════════════════════════════ -->
  <!-- ANNOTATIONS                                -->
  <!-- ══════════════════════════════════════════ -->

  <text x="400" y="728" text-anchor="middle" font-size="8.5" fill="#922B21" font-style="italic">safe, idempotent</text>
  <text x="790" y="445" text-anchor="middle" font-size="8.5" fill="#1E6F3E" font-style="italic">immutable, transactional constructor</text>
  <text x="500" y="445" text-anchor="middle" font-size="7.5" fill="#1E6F3E" font-style="italic">fields: primitives, value types, entity refs</text>
  <text x="500" y="455" text-anchor="middle" font-size="7.5" fill="#1E6F3E" font-style="italic">0..n constrained by Invariants</text>
  <text x="970" y="580" text-anchor="middle" font-size="7.5" fill="#1E6F3E" font-style="italic">0..n constrained by Invariants</text>
  <text x="623" y="728" text-anchor="middle" font-size="7.5" fill="#922B21" font-style="italic">0..1 caused by Command/Query</text>
  <text x="1048" y="822" text-anchor="middle" font-size="7.5" fill="#922B21" font-style="italic">relative | absolute | recurring</text>
  <text x="1048" y="833" text-anchor="middle" font-size="7.5" fill="#922B21" font-style="italic">guard suppresses at firing time</text>

  <!-- Reactive loop highlight -->
  <rect x="110" y="505" width="580" height="530" rx="12" fill="none" stroke="#E8E8E8" stroke-width="1" stroke-dasharray="6,4"/>
  <text x="400" y="1025" text-anchor="middle" font-size="9" fill="#AAA" font-style="italic">Reactive loop: Command → Operation → Event → Policy → Command</text>

</svg>