<svg width="255" height="57" viewBox="0 0 255 57" fill="none" xmlns="http://www.w3.org/2000/svg">
<path d="M24.3566 45C23.1406 45 22.0206 44.696 20.9966 44.088C20.0046 43.48 19.2046 42.68 18.5966 41.688C17.9886 40.664 17.6846 39.544 17.6846 38.328V35.688H24.0206V38.04C24.0206 38.2 24.0686 38.344 24.1646 38.472C24.2926 38.568 24.4366 38.616 24.5966 38.616H45.2846C45.4446 38.616 45.5726 38.568 45.6686 38.472C45.7966 38.344 45.8606 38.2 45.8606 38.04V31.464C45.8606 31.304 45.7966 31.176 45.6686 31.08C45.5726 30.984 45.4446 30.936 45.2846 30.936H24.3566C23.1406 30.936 22.0206 30.632 20.9966 30.024C20.0046 29.416 19.2046 28.616 18.5966 27.624C17.9886 26.6 17.6846 25.464 17.6846 24.216V17.112C17.6846 15.896 17.9886 14.792 18.5966 13.8C19.2046 12.776 20.0046 11.96 20.9966 11.352C22.0206 10.744 23.1406 10.44 24.3566 10.44H45.5726C46.7886 10.44 47.8926 10.744 48.8846 11.352C49.9086 11.96 50.7246 12.776 51.3326 13.8C51.9406 14.792 52.2446 15.896 52.2446 17.112V19.752H45.8606V17.4C45.8606 17.24 45.7966 17.112 45.6686 17.016C45.5726 16.888 45.4446 16.824 45.2846 16.824H24.5966C24.4366 16.824 24.2926 16.888 24.1646 17.016C24.0686 17.112 24.0206 17.24 24.0206 17.4V23.976C24.0206 24.136 24.0686 24.264 24.1646 24.36C24.2926 24.456 24.4366 24.504 24.5966 24.504H45.5726C46.7886 24.504 47.8926 24.808 48.8846 25.416C49.9086 26.024 50.7246 26.84 51.3326 27.864C51.9406 28.856 52.2446 29.976 52.2446 31.224V38.328C52.2446 39.544 51.9406 40.664 51.3326 41.688C50.7246 42.68 49.9086 43.48 48.8846 44.088C47.8926 44.696 46.7886 45 45.5726 45H24.3566Z" fill="#F65E5E"/>
<path d="M57.3889 56.04V17.16H79.0369C80.2529 17.16 81.3569 17.464 82.3489 18.072C83.3729 18.68 84.1729 19.48 84.7489 20.472C85.3569 21.464 85.6609 22.568 85.6609 23.784V38.376C85.6609 39.592 85.3569 40.696 84.7489 41.688C84.1729 42.68 83.3729 43.48 82.3489 44.088C81.3569 44.696 80.2529 45 79.0369 45H63.6769V56.04H57.3889ZM64.2529 38.712H78.7969C78.9569 38.712 79.0849 38.664 79.1809 38.568C79.3089 38.44 79.3729 38.296 79.3729 38.136V24.024C79.3729 23.864 79.3089 23.736 79.1809 23.64C79.0849 23.512 78.9569 23.448 78.7969 23.448H64.2529C64.0929 23.448 63.9489 23.512 63.8209 23.64C63.7249 23.736 63.6769 23.864 63.6769 24.024V38.136C63.6769 38.296 63.7249 38.44 63.8209 38.568C63.9489 38.664 64.0929 38.712 64.2529 38.712ZM95.7439 45C94.5279 45 93.4239 44.696 92.4319 44.088C91.4399 43.48 90.6399 42.68 90.0319 41.688C89.4239 40.696 89.1199 39.592 89.1199 38.376V23.784C89.1199 22.568 89.4239 21.464 90.0319 20.472C90.6399 19.48 91.4399 18.68 92.4319 18.072C93.4239 17.464 94.5279 17.16 95.7439 17.16H110.768C111.984 17.16 113.088 17.464 114.08 18.072C115.104 18.68 115.904 19.48 116.48 20.472C117.088 21.464 117.392 22.568 117.392 23.784V34.248H95.4079V38.136C95.4079 38.296 95.4559 38.44 95.5519 38.568C95.6799 38.664 95.8239 38.712 95.9839 38.712H117.392V45H95.7439ZM95.4079 28.584H111.104V24.024C111.104 23.864 111.04 23.736 110.912 23.64C110.816 23.512 110.688 23.448 110.528 23.448H95.9839C95.8239 23.448 95.6799 23.512 95.5519 23.64C95.4559 23.736 95.4079 23.864 95.4079 24.024V28.584ZM127.853 45C126.637 45 125.533 44.696 124.541 44.088C123.549 43.48 122.749 42.68 122.141 41.688C121.533 40.696 121.229 39.592 121.229 38.376V23.784C121.229 22.568 121.533 21.464 122.141 20.472C122.749 19.48 123.549 18.68 124.541 18.072C125.533 17.464 126.637 17.16 127.853 17.16H149.453V23.448H128.093C127.933 23.448 127.789 23.512 127.661 23.64C127.565 23.736 127.517 23.864 127.517 24.024V38.136C127.517 38.296 127.565 38.44 127.661 38.568C127.789 38.664 127.933 38.712 128.093 38.712H149.501V45H127.853ZM158.828 55.32V48.984H175.58C175.74 48.984 175.868 48.92 175.964 48.792C176.092 48.696 176.156 48.568 176.156 48.408V45H160.796C159.612 45 158.508 44.696 157.484 44.088C156.492 43.48 155.692 42.68 155.084 41.688C154.476 40.696 154.172 39.592 154.172 38.376V17.256H160.46V38.136C160.46 38.296 160.508 38.44 160.604 38.568C160.732 38.664 160.876 38.712 161.036 38.712H175.58C175.74 38.712 175.868 38.664 175.964 38.568C176.092 38.44 176.156 38.296 176.156 38.136V17.256H182.444V48.696C182.444 49.912 182.156 51.016 181.58 52.008C181.004 53.032 180.204 53.832 179.18 54.408C178.188 55.016 177.084 55.32 175.868 55.32H158.828ZM187.608 45V38.712H193.896V45H187.608ZM205.011 45C203.795 45 202.675 44.696 201.651 44.088C200.659 43.48 199.859 42.68 199.251 41.688C198.675 40.696 198.387 39.592 198.387 38.376V27.912H220.371V24.024C220.371 23.864 220.307 23.736 220.179 23.64C220.083 23.512 219.955 23.448 219.795 23.448H198.387V17.16H220.035C221.251 17.16 222.355 17.464 223.347 18.072C224.371 18.68 225.171 19.48 225.747 20.472C226.355 21.464 226.659 22.568 226.659 23.784V45H205.011ZM205.251 38.712H220.371V33.576H204.675V38.136C204.675 38.296 204.723 38.44 204.819 38.568C204.947 38.664 205.091 38.712 205.251 38.712ZM231.715 45V17.16H238.003V45H231.715ZM231.715 14.376V8.04H238.003V14.376H231.715Z" fill="#1A2A36"/>
<path d="M7 48H15V55H0V0H15V7H7V48Z" fill="#F65E5E"/>
<path d="M255 55H240V48H248V7H240V0H255V55Z" fill="#F65E5E"/>
</svg>
